<svg width="87" height="62" viewBox="0 0 87 62" fill="none" xmlns="http://www.w3.org/2000/svg">
<path d="M68.7958 51.7652C68.5745 51.8342 68.3469 51.8822 68.116 51.9087L66.126 52.2316L64.6799 52.4469C64.1484 52.5187 63.5799 52.5545 62.9619 52.6143C61.7259 52.722 60.3045 52.8894 58.7347 52.9133L56.2627 52.9971C55.3975 52.9971 54.5077 52.9971 53.593 52.9971C51.7514 52.9971 49.7861 52.8177 47.722 52.6622C43.243 52.2046 38.8084 51.4047 34.4597 50.2702C30.1602 49.0819 25.9618 47.5745 21.902 45.7613C20.0356 44.8762 18.2557 44.063 16.6737 43.142C15.8703 42.6995 15.0792 42.3048 14.3623 41.8623L12.2859 40.5826C10.951 39.7932 9.81388 38.9441 8.81272 38.1906C8.31832 37.8318 7.83627 37.5208 7.41603 37.1979L6.29127 36.3009L4.75864 35.0451C4.5665 34.9108 4.39214 34.7542 4.2395 34.5787C4.44656 34.6907 4.64122 34.8229 4.82042 34.9733L6.41487 36.1693L7.56435 37.0424L8.98574 37.9992C9.99926 38.669 11.1364 39.4942 12.4836 40.2597L14.5601 41.5155C15.277 41.946 16.0804 42.3288 16.8714 42.7713C18.4535 43.6563 20.2457 44.4576 22.0997 45.3307C30.2197 48.9408 38.8959 51.2397 47.7838 52.1359C49.8479 52.2914 51.7885 52.4947 53.6301 52.5067C54.5447 52.5067 55.4346 52.5785 56.2751 52.5067H58.7471C60.3168 52.5067 61.7135 52.3632 62.9619 52.2795L64.6799 52.1599L66.126 51.9805L68.116 51.7532C68.3426 51.7397 68.5699 51.7437 68.7958 51.7652Z" fill="#455A64"/>
<path d="M27.4639 48.0576C20.1715 47.1127 10.6667 49.8516 5.21594 54.6236C12.9505 53.6152 20.4643 51.3976 27.4639 48.0576Z" fill="#455A64"/>
<path d="M27.8346 48.1413C30.492 41.5155 26.5986 32.1747 26.5986 32.1747C25.8323 30.9189 26.1784 40.7859 27.8346 48.1413Z" fill="#455A64"/>
<path d="M16.3399 42.8789C18.2805 38.0231 15.45 31.182 15.45 31.182C14.9062 30.2611 15.1287 37.4969 16.3399 42.8789Z" fill="#455A64"/>
<path d="M38.1182 50.4615C40.0588 45.5938 37.2407 38.7527 37.2407 38.7527C36.6845 37.8318 36.907 45.0676 38.1182 50.4615Z" fill="#455A64"/>
<path d="M16.5501 42.9866C13.5945 42.7083 10.6113 42.9971 7.77128 43.8365C4.93131 44.6759 2.29042 46.0494 0 47.8782C5.75392 47.1251 11.3433 45.4731 16.5501 42.9866Z" fill="#455A64"/>
<path d="M39.2059 51.2509C31.5057 51.3466 22.075 55.5685 17.1804 61.3212C25.0372 59.1403 32.4759 55.7393 39.2059 51.2509Z" fill="#455A64"/>
<path d="M63.1843 12.0102C61.6136 9.72888 59.4342 7.9014 56.8772 6.72152C54.3202 5.54164 51.4809 5.05332 48.6603 5.30835C45.8398 5.56338 43.1431 6.55224 40.8562 8.17009C38.5694 9.78794 36.7776 11.9745 35.6709 14.4978C34.7949 16.6348 34.3636 18.9182 34.4017 21.2169C34.4399 23.5156 34.9469 25.7844 35.8934 27.893C37.8168 32.1193 40.9634 35.7166 44.9533 38.2504C55.2244 45.0198 70.1059 44.7088 79.6478 37.0544C83.3212 34.2851 85.8223 30.3125 86.6806 25.8837C87.0616 23.3139 86.6917 20.6922 85.6128 18.3152C84.5339 15.9383 82.789 13.9009 80.5757 12.4337C78.3623 10.9664 75.7687 10.1279 73.0884 10.0129C70.4081 9.89784 67.748 10.511 65.4091 11.7829" fill="#742020"/>
<path d="M63.2213 11.9862C62.8784 10.7825 62.108 9.73427 61.0456 9.0256C59.9832 8.31693 58.6968 7.99316 57.4122 8.11119L60.8482 12.0699C59.9143 12.1965 59.0314 12.5595 58.2891 13.1224C57.5468 13.6853 56.9714 14.4279 56.6211 15.2752C56.4604 15.6819 56.411 16.2559 56.8189 16.4712C56.9595 16.5175 57.1089 16.5329 57.2564 16.5163C57.4039 16.4998 57.5458 16.4517 57.6717 16.3756L61.8494 14.7012C62.1351 16.9571 62.9835 19.112 64.3214 20.9802C65.2724 18.9968 65.8059 16.8502 65.8911 14.6653L70.5014 16.6506C70.1372 15.3626 69.384 14.2091 68.3384 13.3377C69.7044 13.0872 71.0114 12.5968 72.1947 11.8906C72.5532 11.6753 72.9363 11.3045 72.7756 10.9337C72.615 10.563 72.2812 10.563 71.9599 10.5391C68.9145 10.2561 65.8517 10.8689 63.1719 12.2972" fill="#455A64"/>
<path d="M62.9124 13.6606C63.6285 9.14658 63.2347 4.53281 61.7629 0.193656C62.863 -0.0455442 64.2349 -0.21299 64.9271 0.63617C65.2815 1.16867 65.4464 1.79862 65.3968 2.43017C65.4465 6.69117 64.6056 10.9179 62.9248 14.8566" fill="#455A64"/>
<path d="M40.5284 29.8306C40.2507 29.6314 40.005 29.3936 39.7991 29.1249C39.2052 28.4334 38.6874 27.6838 38.2541 26.8884C36.7977 24.2249 36.2846 21.1726 36.7937 18.1998C37.3027 15.227 38.8058 12.498 41.0722 10.4314C41.745 9.80448 42.4869 9.25099 43.2846 8.78095C43.5622 8.58855 43.8715 8.443 44.1993 8.3504C43.1882 9.06239 42.2262 9.83741 41.3194 10.6706C39.1909 12.7383 37.7824 15.3974 37.2906 18.2768C36.7987 21.1562 37.2478 24.1124 38.5755 26.7329C39.1513 27.8081 39.8039 28.8431 40.5284 29.8306Z" fill="white"/>
<path d="M45.1511 33.2152C45.1511 33.3348 44.3724 33.2152 43.6432 32.677C42.9139 32.1388 42.5184 31.5528 42.6296 31.481C42.7409 31.4093 43.26 31.8279 43.9398 32.2943C44.6196 32.7607 45.2005 33.0836 45.1511 33.2152Z" fill="white"/>
</svg>
